<mxfile host="app.diagrams.net" modified="2024-02-04T14:41:55.291Z" agent="Mozilla/5.0 (Windows NT 10.0; Win64; x64) AppleWebKit/537.36 (KHTML, like Gecko) Chrome/121.0.0.0 Safari/537.36" version="22.1.21" etag="wcyYhge51ekM1XSZjcwS" type="github">
  <diagram name="Page-1" id="9lptGY3JfKgQoynIDlKW">
    <mxGraphModel>
      <root>
        <mxCell id="0" />
        <mxCell id="1" parent="0" />
      </root>
    </mxGraphModel>
  </diagram>
</mxfile>
